<?xml version="1.0" encoding="utf-8"?>
<!-- Based on Google Noto Emoji (Apache-2.0 / SIL OFL 1.1), modified -->
<svg version="1.1" xmlns="http://www.w3.org/2000/svg" xmlns:xlink="http://www.w3.org/1999/xlink"
     viewBox="0 0 128 128" width="32" height="32">
<defs>
  <clipPath id="iconClip">
    <rect x="8" y="8" width="112" height="112" rx="22" ry="22"/>
  </clipPath>
</defs>
<!-- Drop shadow (elementary OS HIG) -->
<rect x="8" y="9" width="112" height="112" rx="22" ry="22"
      fill="#000000" opacity="0.2"/>
<!-- Background with outer stroke (elementary OS HIG) -->
<rect x="8" y="8" width="112" height="112" rx="22" ry="22"
      fill="#37474f" stroke="#263237" stroke-width="1"/>
<!-- Artwork clipped to background shape -->
<g clip-path="url(#iconClip)">
<g transform="translate(10.4,10.7) scale(0.84)">
<path style="fill:#2a6cb8;" d="M22.31,71.73c0,0,3.57,5.72,9.22,7.67c5.65,1.96,16.09-0.87,16.09-0.87l53.92-3.04
	c0,0,8.7-1.74,13.48-6.09s5.91-10.03,5.91-10.03l-9.17-13.02l-40.44-8.48L32.18,52l-9.28,9.22l-0.59,10.5L22.31,71.73z"/>
<path style="fill:#3689e6;" d="M53.49,97.88c0,0-4.45,0.38-7.09,3.59s-1.7,3.88-3.97,5.96s-5.94,3.09-8.89,6.15s-4.45,7.63-3.2,9.69
	c0.38,0.63,2.78,0.63,2.78,0.63l10.34-0.29l16.08-0.47l24.69,0.19c0,0,27.9,0,29.13-0.09c0.45-0.04,1.1-6.47-3.12-10.5
	c-4.29-4.1-7.28-3.78-9.46-5.68c-2.18-1.89-1.99-4.63-6.43-7.85c-4.45-3.22-10.5-3.12-10.5-3.12l-30.36,1.8L53.49,97.88z"/>
<polygon style="fill:#1a4f7a;" points="60.87,116.42 66.16,123.33 77.89,123.33 81.49,119.17 81.3,106.02 60.58,106.21 "/>
<path style="fill:#4da1ff;" d="M53.87,99.59c0,0,1.99,8.99,3.22,13.9s2.46,9.65,2.46,9.65s1.61,0.28,3.12,0.28
	c1.51,0,3.5-0.09,3.5-0.09s-1.7-7.38-2.08-9.08s-0.76-6.15-0.76-6.15l16.65,0.95c0,0-0.66,5.58-1.04,8.04s-1.04,6.24-1.04,6.24
	s1.1,0.17,3.09,0.17s3.25-0.17,3.25-0.17s2.55-10.03,3.31-15.61c0.76-5.58,1.14-9.36,1.14-9.36L53.87,99.59L53.87,99.59z"/>
<path style="fill:#F5A813;" d="M97.75,64.5c0,0,6.43,1.23,4.92,8.32c-1.51,7.09-7.76,8.42-7.76,8.42S97.75,64.5,97.75,64.5z"/>
<path style="fill:#F5A813;" d="M44.03,66.29c0,0-4.92-1.8-5.58,4.73c-0.84,8.29,8.51,10.4,8.51,10.4S44.03,66.29,44.03,66.29z"/>
<path style="fill:#B0B0B0;" d="M46.39,53.43l-3.97,6.72c0,0,1.23,8.51,2.08,12.11s2.55,9.74,2.65,11.82s1.23,6.62,3.31,10.69
	s6.72,10.03,10.31,13.05c3.59,3.03,8.42,7.47,11.16,6.81s7.09-4.26,12.67-10.22s9.17-12.49,10.12-17.69
	c0.95-5.2,1.89-12.01,2.65-16.17s1.8-7.28,1.61-11.92c-0.19-4.63-2.74-10.4-2.74-10.4L46.39,53.43L46.39,53.43z"/>
<path style="fill:#9A9A9A;" d="M49.61,43.97l-7.39,6.19c0,0-0.08,2.8,0.01,5.63c0.04,1.32,0.19,4.35,0.19,4.35s2.46-1.32,3.88-1.99
	s2.93-1.42,2.93-1.42l8.7-5.11l29.61-0.95l4.35,5.49c0,0,2.93,0.76,4.35,1.32s2.74,1.14,2.74,1.14s0.47-3.59,0.19-8.04
	s-1.32-7.38-1.32-7.38l-31.69-4.26l-16.55,5.01L49.61,43.97z"/>
<path style="fill:#F0A007;" d="M58.97,63.93l-9.74-7.19c0,0,0.28-4.35,0.28-5.01s0.57-1.42,2.18-1.61s13.81-0.76,19.67-0.85
	s17.12,0.19,18.44,0.19s1.61,0.85,1.7,2.18s0.38,4.54,0.38,4.54l-32.92,7.76L58.97,63.93z"/>
<path style="fill:#FFCA26;" d="M50.46,73.58l-2.18-6.34c0,0,0.38-3.78,0.66-5.58s0.28-4.92,0.28-4.92s10.69-4.26,22.42-3.78
	s20.24,3.22,20.24,3.22s0.47,2.93,0.85,5.01s1.14,5.11,1.14,5.11l-3.78,15.04L74.96,94.11l-17.03-4.92L50.46,73.58L50.46,73.58z"/>
<path style="fill:#785446;" d="M71.01,82.66c-3.45,0-6.71-1.27-7.49,0.05c-0.75,1.27,1.86,4.22,7.49,4.26
	c6.38,0.04,8.44-3.26,7.62-4.46S74.99,82.65,71.01,82.66L71.01,82.66z"/>
<g>
	<path style="fill:#737373;" d="M51.85,60.02c0.62,1.01,2.73-0.58,6.09-0.67c2.75-0.08,5.14,1.88,5.7,0.1
		c0.67-2.11-1.58-3.02-5.66-2.83S51.01,58.67,51.85,60.02L51.85,60.02z"/>
	<path style="fill:#737373;" d="M78.27,59.9c1.39,0.38,2.44-0.62,5.27-0.43c2.64,0.18,5.23,1.34,5.99,0.48s-1.21-2.93-5.56-3.36
		c-3.93-0.38-6.33,0.67-6.62,1.53s0.34,1.62,0.91,1.77L78.27,59.9z"/>
</g>
<g>
	<path style="fill:#3F4040;" d="M57.89,62.9c-3.21-0.05-4.46,2.73-4.27,4.7s1.68,3.84,4.51,3.79s4.17-1.82,4.17-4.17
		S60.86,62.95,57.89,62.9L57.89,62.9z"/>
	<path style="fill:#3F4040;" d="M83.62,62.81c-2.4-0.26-4.6,1.44-4.51,4.31c0.11,3.21,2.92,4.22,4.46,4.22
		c2.21,0,3.98-1.63,4.03-3.98C87.65,64.72,86.31,63.09,83.62,62.81z"/>
</g>
<path style="fill:#4da1ff;" d="M94.7,7.41c-0.41-3.14-5.19-5.42-14.25-3.15c-8.58,2.14-23.2,12.49-29.51,21.06
	c-6.31,8.58-8.07,14.5-8.07,14.5l51.83-6.56c0,0-3.66-6.18-3.15-12.86C92.07,13.57,95.08,10.31,94.7,7.41z"/>
<path style="fill:#3689e6;" d="M54.34,35.03L32.65,46.38l-12.36,14c0,0-0.43,2.4-0.04,5.69c0.34,2.91,2.06,5.66,2.06,5.66
	S32.75,45.18,71.24,42.6c35.69-2.4,49.69,16.77,49.69,16.77s1.32-3.6-0.5-8.07c-1.65-4.05-4.04-6.31-4.04-6.31l-19.42-9.58
	C96.97,35.41,54.34,35.03,54.34,35.03z"/>
<path style="fill:#8dc6ff;" d="M20.29,60.38c0,0,5.68-27.62,50.07-30.39C103.52,27.92,116.39,45,116.39,45s-23.71-11.85-47.8-9.33
	c-10.35,1.08-20.47,3.89-28.63,8.58C28.15,51.04,20.29,60.39,20.29,60.38L20.29,60.38z"/>
<path style="fill:#E0E0E0;" d="M93.88,66.29c-0.28-0.09-2.39,6.05-5.01,9.17c-2.93,3.5-5.01,5.2-5.58,5.2s-1.42-3.22-3.69-3.59
	c-2.27-0.38-5.68,0.76-5.68,0.76l-5.89,0.12c0,0-3-0.98-5.27,0.07s-3.22,3.31-3.4,3.31s-3.78-2.65-6.24-6.34
	c-2.46-3.69-4.26-7.76-4.82-7.76c-0.78,0,2.32,13.9,3.03,17.03c0.85,3.78,3.12,10.69,4.26,13.24c1.13,2.55,1.51,3.31,2.65,2.93
	c1.14-0.38,1.04-2.36,1.04-2.36s2.2,1.48,3.71,3.75c1.51,2.27,1.89,4.14,4.52,7.22c1.48,1.74,4.26,3.59,5.3,2.84
	c1.04-0.76,0.47-2.55,0.47-2.55s1.51,0.76,2.74-0.76s3.88-5.49,4.63-6.53c0.76-1.04,2.27-3.88,2.27-3.88s0,2.55,1.51,2.65
	c1.51,0.09,3.88-5.2,6.43-13.24s3.5-13.34,3.5-15.8s-0.19-5.39-0.47-5.49L93.88,66.29z M77.99,87.39c-0.85,0.85-2.65,2.65-6.62,2.65
	s-6.15-1.42-7.19-2.36c-1.04-0.95-1.32-4.07,0-5.58s3.88-0.96,6.72-1.14c3.12-0.19,6.15-0.28,7.19,0.85
	c1.04,1.14,0.76,4.73-0.09,5.58H77.99z"/>
<!-- Silver laptop on the left, horizontal, below robe -->
<g transform="translate(7,86) scale(1.05)">
  <!-- Laptop lid (back view) -->
  <rect x="0" y="0" width="52" height="34" rx="3" ry="3" fill="#c0c0c0" stroke="#a0a0a0" stroke-width="1"/>
  <!-- Inner bezel edge -->
  <rect x="2.5" y="2.5" width="47" height="29" rx="2" ry="2" fill="#d0d0d0"/>
  <!-- Hinge/bottom edge -->
  <rect x="4" y="32.5" width="44" height="4" rx="1.5" ry="1.5" fill="#a8a8a8"/>
  <!-- Magical star on back -->
  <g transform="translate(26,16)">
    <polygon points="0,-7 2.2,-2.2 7,-1.5 3.4,1.8 4.2,7 0,4.4 -4.2,7 -3.4,1.8 -7,-1.5 -2.2,-2.2"
             fill="#ffd54f" opacity="0.9"/>
    <!-- Star glow -->
    <circle cx="0" cy="0" r="9" fill="#ffd54f" opacity="0.1"/>
  </g>
</g>
<!-- Binary inscription on hat: "I" = 01001001 -->
<text transform="translate(59,29) rotate(-32)" style="font-family:monospace;font-size:6px;font-weight:bold;fill:#ffffff;opacity:0.7;letter-spacing:1px;">01001001</text>
<path style="fill:#E59700;" d="M70.96,74.94c-2.4,0.05-3.29-0.77-4.14,0.1c-0.78,0.79-0.08,1.91,1.21,2.92
	c1.76,1.36,4.47,1.32,5.88,0.06s2-2.3,1.1-3.07S73.41,74.9,70.96,74.94L70.96,74.94z"/>
</g>
</g>
<!-- Inner highlight (elementary OS HIG) -->
<rect x="9" y="9" width="110" height="110" rx="21" ry="21"
      fill="none" stroke="#ffffff" stroke-width="1" opacity="0.15"/>
</svg>
